{"glyphs":{":":{"x_min":0,"x_max":211,"ha":211,"o":"m 197 420 q 197 405 192 389 q 187 373 177 360 q 167 347 152 338 q 137 330 119 330 q 96 330 84 344 q 72 357 72 380 q 72 395 78 411 q 84 426 94 439 q 105 452 119 461 q 134 469 151 469 q 173 469 185 456 q 197 442 197 420 z m 149 77 q 149 61 144 45 q 139 29 128 15 q 118 2 104 -7 q 89 -15 71 -15 q 47 -15 36 -1 q 24 13 24 36 q 24 50 30 66 q 36 82 46 95 q 57 108 71 116 q 86 125 103 125 q 125 125 137 112 q 149 98 149 77 z"},"$":{"x_min":0,"x_max":419,"ha":419,"o":"m 406 559 q 409 557 403 545 q 397 534 389 520 q 380 507 371 495 q 361 483 357 480 l 338 483 q 328 503 311 520 q 293 536 271 544 l 244 358 q 278 341 303 325 q 329 309 345 291 q 362 272 370 251 q 378 230 378 204 q 378 167 365 132 q 351 98 326 69 q 302 41 268 20 q 233 0 192 -9 l 185 -66 q 176 -74 169 -77 q 162 -81 150 -83 l 139 -72 l 146 -15 q 144 -15 141 -15 l 135 -15 q 116 -15 92 -9 q 67 -2 45 8 q 23 19 8 31 q -7 44 -7 57 q -7 63 -1 76 q 5 88 14 101 q 22 114 32 124 q 42 134 48 134 q 54 134 62 122 q 69 110 82 95 q 94 80 112 66 q 130 53 156 49 l 189 289 l 176 295 q 114 323 88 357 q 62 392 62 431 q 62 458 73 486 q 84 513 106 535 q 128 558 160 575 q 192 591 233 598 l 241 653 q 248 657 251 660 q 255 662 258 664 q 261 666 264 667 q 268 669 274 671 l 287 659 l 278 601 l 279 601 q 316 601 349 588 q 382 576 406 559 z m 305 167 q 305 197 288 220 q 271 243 231 267 l 201 50 q 223 55 242 65 q 262 75 275 91 q 289 106 297 125 q 305 145 305 167 z m 131 464 q 131 454 134 444 q 137 434 145 424 q 153 414 167 403 q 181 392 203 379 l 227 549 q 205 547 188 539 q 170 531 157 519 q 145 507 138 493 q 131 479 131 464 z"},"?":{"x_min":0,"x_max":408,"ha":408,"o":"m 228 77 q 228 61 223 45 q 217 29 207 15 q 197 2 182 -7 q 167 -15 149 -15 q 127 -15 115 -1 q 103 13 103 36 q 103 50 108 66 q 114 82 125 95 q 135 108 150 116 q 164 125 181 125 q 204 125 216 112 q 228 98 228 77 z m 409 579 q 409 537 396 505 q 383 473 363 446 q 343 420 320 397 q 296 374 274 350 q 253 327 237 300 q 221 273 216 239 l 210 194 q 201 187 191 182 q 181 176 169 172 l 158 183 l 160 241 q 161 272 173 300 q 185 327 202 352 q 219 376 239 399 q 259 422 276 446 q 293 470 305 495 q 316 521 316 551 q 316 597 296 623 q 277 649 238 649 q 219 649 205 640 q 190 631 182 616 q 173 600 170 579 q 168 559 172 535 q 151 525 130 520 q 109 515 88 512 l 77 529 q 77 560 91 590 q 105 621 132 645 q 159 668 197 683 q 235 698 281 698 q 313 698 337 689 q 361 680 377 664 q 393 647 401 626 q 409 604 409 579 z"},"<":{"x_min":0,"x_max":417,"ha":417,"o":"m 401 429 q 399 424 396 417 q 394 410 391 402 q 388 394 385 387 q 382 379 380 375 l 123 276 l 355 176 l 361 157 q 350 147 341 140 q 332 132 317 123 l 37 243 l 26 258 q 27 264 30 271 q 33 278 36 285 q 39 292 41 298 q 44 304 46 309 l 390 442 z"},"'":{"x_min":0,"x_max":211,"ha":211,"o":"m 153 424 q 145 419 134 417 q 123 416 112 416 l 123 670 q 128 673 139 677 q 149 682 160 686 q 171 690 181 693 q 191 697 196 698 l 216 687 z"},"=":{"x_min":0,"x_max":417,"ha":417,"o":"m 398 366 q 397 360 394 354 q 392 347 388 340 q 385 333 382 327 q 378 321 376 317 l 53 317 l 43 331 q 45 335 48 342 q 50 348 53 355 q 57 361 60 367 q 63 374 65 378 l 389 378 z m 379 219 q 377 214 375 207 q 372 201 368 194 q 365 187 362 181 q 359 175 357 171 l 33 171 l 23 184 q 25 189 28 195 q 31 202 34 208 q 37 215 40 221 q 43 227 46 232 l 369 232 z"},"a":{"x_min":0,"x_max":460,"ha":460,"o":"m 292 202 q 294 223 298 247 q 302 270 306 292 q 310 314 313 333 q 317 352 319 365 q 312 371 303 377 q 295 383 286 388 q 276 394 267 397 q 257 400 247 400 q 225 400 206 389 q 187 378 171 361 q 155 344 143 321 q 131 299 122 275 q 114 251 109 228 q 105 204 105 185 q 105 155 110 131 q 115 107 123 91 q 131 74 143 65 q 154 57 167 57 q 177 57 192 69 q 208 81 224 102 q 241 122 259 148 q 276 174 292 202 z m 453 40 q 411 11 381 -5 q 352 -20 336 -20 q 327 -20 318 -14 q 310 -8 302 7 q 294 23 289 50 q 284 78 284 120 q 271 98 252 73 q 234 48 213 28 q 193 7 171 -7 q 150 -20 130 -20 q 113 -20 95 -11 q 76 -1 60 19 q 44 39 34 71 q 23 103 23 149 q 23 188 33 224 q 42 261 60 295 q 79 329 105 358 q 131 388 166 411 q 179 420 195 428 q 211 437 228 443 q 246 449 263 453 q 281 457 298 457 q 308 457 318 454 q 328 452 337 447 q 346 443 355 438 q 364 433 372 428 q 384 436 398 443 q 413 450 426 457 l 438 435 q 429 428 424 423 q 418 417 414 410 q 410 403 407 393 q 404 383 401 366 q 394 331 387 295 q 381 260 376 229 q 372 198 369 175 q 367 151 367 140 q 367 91 374 70 q 380 48 392 48 q 401 48 414 51 q 427 54 446 62 z"},"L":{"x_min":0,"x_max":460,"ha":460,"o":"m 429 129 q 424 108 419 88 q 414 68 408 51 q 403 33 399 20 q 395 7 392 0 l -1 0 l 2 26 q 33 33 51 41 q 69 49 70 56 l 140 559 q 141 565 126 574 q 112 583 80 589 l 83 615 l 296 615 l 292 589 q 262 583 244 574 q 226 566 224 559 l 159 82 q 158 73 161 67 q 164 61 173 56 q 182 52 198 51 q 213 49 238 49 l 296 49 q 317 49 331 52 q 346 56 358 65 q 370 75 381 93 q 392 110 406 139 z"},"3":{"x_min":0,"x_max":419,"ha":419,"o":"m 375 489 q 375 462 366 440 q 358 417 343 398 q 328 379 307 365 q 287 351 263 341 q 286 338 305 326 q 323 314 336 296 q 349 278 356 256 q 363 233 363 209 q 363 163 347 122 q 331 82 302 51 q 272 21 232 3 q 191 -15 142 -15 q 107 -15 70 3 q 33 22 -3 61 l 18 98 q 37 82 52 71 q 68 60 83 53 q 97 47 112 44 q 126 42 144 42 q 175 42 199 54 q 224 66 241 87 q 258 108 267 136 q 276 164 276 196 q 276 223 268 243 q 260 263 247 276 q 234 289 218 295 q 201 301 183 301 l 174 301 q 171 301 168 300 q 166 300 162 299 q 159 299 152 297 l 149 332 q 178 340 204 352 q 230 364 249 381 q 268 398 279 422 q 290 446 290 477 q 290 492 286 506 q 283 520 275 531 q 267 542 254 548 q 242 554 225 554 q 209 554 196 547 q 183 541 174 530 q 165 519 160 504 q 155 490 155 473 q 138 463 118 457 q 98 450 78 449 l 67 469 q 70 489 87 513 q 104 536 129 556 q 154 577 186 590 q 218 603 252 603 q 285 603 308 594 q 332 584 346 568 q 361 552 368 531 q 375 511 375 489 z"},";":{"x_min":0,"x_max":211,"ha":211,"o":"m 197 420 q 197 405 192 389 q 187 373 177 360 q 167 347 152 338 q 138 330 120 330 q 96 330 84 344 q 72 357 72 380 q 72 395 78 411 q 84 426 94 439 q 105 452 120 461 q 134 469 151 469 q 173 469 185 456 q 197 442 197 420 z m 160 52 q 160 37 154 19 q 147 0 137 -20 q 126 -41 112 -61 q 98 -82 81 -100 q 65 -119 47 -134 q 30 -150 13 -160 l -8 -141 q 30 -101 48 -66 q 67 -31 67 -4 q 67 5 64 14 q 62 22 55 29 q 49 35 39 38 q 28 42 14 40 l 10 67 q 16 73 32 82 q 47 90 66 98 q 84 106 101 111 q 118 117 127 117 q 136 112 142 107 q 148 102 152 95 q 156 87 158 77 q 160 67 160 52 z"},"J":{"x_min":0,"x_max":292,"ha":292,"o":"m 314 589 q 284 583 265 574 q 247 566 246 559 l 183 100 q 175 43 162 4 q 148 -35 131 -62 q 114 -89 95 -107 q 75 -125 55 -141 q 42 -151 26 -160 q 10 -169 -7 -175 q -23 -182 -38 -185 q -53 -188 -63 -188 q -79 -188 -93 -184 q -106 -179 -117 -173 q -128 -166 -135 -159 q -141 -152 -141 -147 q -141 -142 -133 -132 q -125 -123 -114 -113 q -103 -103 -91 -96 q -80 -88 -74 -88 q -69 -88 -63 -94 q -57 -99 -49 -105 q -41 -111 -30 -116 q -19 -121 -4 -121 q 8 -121 21 -114 q 35 -106 49 -85 q 62 -65 74 -29 q 86 8 94 65 l 162 559 q 162 562 159 565 q 156 569 147 573 q 138 577 122 581 q 106 585 80 589 l 83 615 l 318 615 z"},"V":{"x_min":0,"x_max":598,"ha":598,"o":"m 641 589 q 610 583 592 577 q 573 571 567 557 l 324 33 q 319 22 309 14 q 299 6 287 0 q 274 -6 263 -10 q 251 -13 243 -15 l 122 557 q 120 570 107 578 q 94 585 65 589 l 69 615 l 275 615 l 272 589 q 237 587 223 580 q 208 572 212 558 l 304 110 l 510 557 q 517 571 503 578 q 489 584 453 589 l 457 615 l 645 615 z"},"\"":{"x_min":0,"x_max":402,"ha":402,"o":"m 153 424 q 145 419 134 417 q 123 416 112 416 l 123 670 q 128 673 139 677 q 149 682 160 686 q 171 690 181 693 q 191 697 196 698 l 216 687 z m 320 424 q 312 419 301 417 q 290 416 279 416 l 290 670 q 295 673 306 677 q 316 682 327 686 q 338 690 348 693 q 358 697 363 698 l 382 687 z"},"7":{"x_min":0,"x_max":419,"ha":419,"o":"m 440 570 q 412 517 384 463 q 356 410 330 358 q 304 306 279 256 q 255 207 234 164 q 213 121 196 84 q 179 48 168 22 q 151 10 128 1 q 104 -9 82 -15 l 65 2 q 113 77 153 144 q 192 210 227 273 q 261 335 293 396 q 325 456 358 518 l 156 518 q 149 518 143 517 q 136 516 127 509 q 119 502 108 487 q 98 472 84 443 l 63 453 q 66 464 71 483 q 76 501 81 521 q 86 541 92 559 q 97 577 102 588 l 428 588 z"},"S":{"x_min":0,"x_max":451,"ha":451,"o":"m 440 585 q 443 583 438 571 q 433 560 424 547 q 415 534 405 522 q 395 510 390 507 l 371 510 q 355 539 330 558 q 305 577 276 577 q 250 577 230 569 q 210 561 197 547 q 184 534 177 518 q 170 502 170 486 q 170 475 173 463 q 177 452 188 439 q 198 426 218 412 q 238 397 271 381 q 309 361 336 343 q 363 325 380 305 q 397 286 405 263 q 413 241 413 214 q 413 168 394 126 q 375 85 341 53 q 308 22 264 3 q 219 -15 169 -15 q 148 -15 122 -9 q 96 -2 73 8 q 51 18 35 31 q 20 44 20 58 q 20 64 26 77 q 33 89 42 102 q 51 115 61 124 q 71 134 78 134 q 82 134 87 127 q 93 121 100 112 q 107 103 117 92 q 126 81 139 71 q 151 62 167 56 q 183 49 203 49 q 230 49 254 59 q 278 68 296 84 q 314 101 324 123 q 334 146 334 172 q 334 193 328 210 q 322 228 307 244 q 292 261 267 277 q 242 293 205 311 q 173 326 152 343 q 131 360 119 378 q 107 396 102 415 q 97 434 97 453 q 97 485 113 517 q 128 549 156 574 q 185 599 224 614 q 264 630 313 630 q 353 630 385 616 q 417 603 440 585 z"},"}":{"x_min":0,"x_max":320,"ha":320,"o":"m 279 315 q 225 300 195 272 q 165 243 159 206 q 157 187 156 173 q 155 159 156 147 q 156 135 157 124 q 158 114 159 102 q 159 90 158 76 q 158 62 155 42 q 150 9 135 -20 q 119 -48 95 -72 q 71 -97 39 -117 q 7 -137 -30 -154 l -40 -125 q -21 -114 -3 -99 q 14 -84 27 -67 q 41 -49 50 -29 q 59 -9 62 14 q 65 42 65 60 q 65 79 64 95 q 63 112 63 131 q 62 150 66 178 q 69 198 78 217 q 87 237 100 254 q 113 271 131 285 q 148 299 169 308 q 125 318 110 352 q 96 385 104 440 q 107 468 113 489 q 119 510 125 529 q 131 548 136 567 q 142 585 145 608 q 148 633 148 653 q 147 672 141 688 q 135 705 121 718 q 108 732 86 746 l 104 781 q 141 765 168 747 q 194 729 210 707 q 226 685 232 658 q 237 630 232 595 q 229 567 223 548 q 217 528 211 510 q 205 492 199 471 q 194 451 190 422 q 184 382 199 363 q 214 344 246 344 l 260 344 q 263 344 266 345 q 269 346 276 347 z"},"Z":{"x_min":0,"x_max":506,"ha":506,"o":"m 131 54 l 357 54 q 367 54 376 59 q 385 65 394 78 q 403 91 413 112 q 423 133 436 165 l 464 157 q 461 141 458 119 q 454 98 450 76 q 447 55 443 34 q 440 14 438 0 l 23 0 l 13 23 l 395 564 l 198 564 q 191 564 181 558 q 171 551 161 538 q 150 525 140 506 q 129 486 121 459 l 91 466 l 128 627 q 140 623 150 620 q 160 618 169 617 q 179 616 189 615 q 200 615 212 615 l 500 615 l 509 592 z"},"x":{"x_min":0,"x_max":447,"ha":447,"o":"m 437 40 q 395 11 366 -5 q 338 -20 317 -20 q 302 -20 288 -6 q 274 9 260 33 q 246 57 232 89 q 218 120 205 155 q 183 125 152 85 q 122 45 90 -2 q 82 -3 69 -5 q 56 -7 43 -10 q 30 -12 17 -15 q 5 -18 -4 -20 l -17 -2 q 5 18 31 43 q 58 68 84 95 q 111 123 137 152 q 163 180 185 206 q 170 242 157 276 q 144 310 131 336 q 118 362 106 378 q 93 394 82 394 q 77 394 67 392 q 57 390 46 388 q 34 385 20 381 l 12 405 q 33 415 53 424 q 73 433 90 440 q 107 448 120 452 q 133 457 139 457 q 151 457 165 441 q 179 425 193 398 q 207 372 221 338 q 235 304 250 267 q 269 290 286 313 q 303 336 316 355 q 329 374 337 387 q 345 400 345 403 q 345 408 343 412 q 341 416 335 418 q 330 420 320 420 q 311 420 295 419 l 293 444 q 310 447 325 450 q 341 452 355 454 q 370 456 381 456 q 393 457 400 457 q 425 457 436 449 q 446 441 446 431 q 446 421 434 405 q 423 388 401 362 q 378 335 345 300 q 312 265 269 218 q 282 185 295 154 q 308 123 321 99 q 333 75 345 61 q 356 47 367 47 q 378 47 394 50 q 409 54 427 63 z"},")":{"x_min":0,"x_max":299,"ha":299,"o":"m 251 308 q 240 227 215 155 q 189 82 153 22 q 117 -38 71 -83 q 25 -128 -28 -154 l -42 -127 q -9 -102 22 -63 q 53 -23 80 30 q 107 83 127 148 q 147 214 159 293 q 168 364 168 433 q 168 501 159 562 q 149 623 130 673 q 111 723 82 756 l 104 783 q 151 757 184 708 q 216 660 235 597 q 254 534 258 459 q 262 385 251 308 z"},"&":{"x_min":0,"x_max":598,"ha":598,"o":"m 262 552 q 258 524 261 495 q 264 466 272 435 q 301 452 322 469 q 342 487 355 504 q 368 521 374 537 q 381 553 383 568 q 387 586 385 601 q 384 617 378 628 q 372 640 361 646 q 351 652 335 652 q 319 652 306 644 q 294 635 285 621 q 276 607 270 589 q 264 571 262 552 z m 228 46 q 262 46 293 57 q 324 67 350 86 q 332 110 312 139 q 293 167 275 199 q 257 231 241 265 q 226 298 213 333 q 168 295 147 260 q 126 225 121 186 q 116 152 124 126 q 131 100 147 82 q 162 64 183 55 q 205 46 228 46 z m 638 365 q 625 350 611 337 q 597 324 585 316 q 570 324 550 330 q 529 336 514 337 q 521 321 521 303 q 522 286 519 257 q 514 224 496 188 q 478 151 449 116 q 470 91 489 72 q 521 38 572 50 l 574 24 q 553 15 534 8 q 515 0 500 -5 q 484 -10 473 -12 q 462 -15 457 -15 q 447 -15 427 2 q 406 19 380 49 q 341 20 296 2 q 251 -15 202 -15 q 159 -15 125 -2 q 90 10 68 35 q 45 59 36 94 q 27 130 33 176 q 40 230 82 283 q 125 337 197 388 q 188 423 185 457 q 182 492 187 524 q 192 563 209 597 q 226 631 250 656 q 275 680 305 694 q 335 708 367 708 q 397 708 417 698 q 437 688 448 670 q 459 653 463 631 q 466 608 463 584 q 459 560 446 535 q 433 511 413 488 q 394 465 368 444 q 343 423 314 405 l 287 387 q 310 325 345 265 q 380 205 418 155 q 446 197 453 237 q 457 260 453 279 q 449 298 441 312 q 433 326 421 333 q 410 341 396 341 l 387 355 q 390 358 395 363 q 399 367 405 371 q 410 375 416 379 q 421 382 426 384 l 628 384 z"},"_":{"x_min":0,"x_max":440,"ha":440,"o":"m 367 -78 q 365 -83 363 -89 q 360 -95 357 -102 q 354 -108 351 -115 q 348 -121 345 -125 l -13 -125 l -22 -111 q -20 -101 -13 -87 q -6 -74 0 -64 l 357 -64 z"},"v":{"x_min":0,"x_max":456,"ha":456,"o":"m 449 416 q 449 400 438 371 q 427 341 402 292 q 377 244 336 174 q 295 104 235 7 q 231 5 223 1 q 216 -2 207 -6 q 198 -10 190 -14 q 182 -18 177 -20 l 161 -4 q 157 23 152 57 q 147 90 142 125 q 136 159 130 194 q 124 228 118 259 q 112 289 106 313 q 101 338 97 353 q 93 366 88 374 q 84 382 79 386 q 75 391 70 392 q 66 393 62 393 q 57 393 49 391 q 41 390 33 387 q 24 385 14 381 l 5 404 q 26 414 46 423 q 67 433 84 440 q 102 448 115 452 q 129 457 136 457 q 150 457 158 443 q 166 429 176 395 q 179 382 185 356 q 190 331 197 299 q 203 267 209 232 q 215 197 220 167 q 225 137 228 115 q 231 93 231 87 q 267 144 292 192 q 317 241 333 278 q 349 316 356 341 q 364 366 364 377 q 364 388 356 393 q 349 398 335 398 q 327 398 317 397 q 308 395 297 391 l 288 413 q 302 420 320 428 q 337 437 355 443 q 372 449 387 453 q 402 457 412 457 q 429 457 439 448 q 449 439 449 416 z"},"O":{"x_min":0,"x_max":554,"ha":554,"o":"m 454 369 q 454 410 446 447 q 437 483 421 510 q 404 537 380 552 q 356 568 325 568 q 290 568 262 554 q 234 540 213 515 q 191 491 176 460 q 160 429 150 394 q 140 360 135 325 q 130 291 130 260 q 130 214 139 176 q 148 137 165 109 q 182 82 206 66 q 230 50 259 50 q 295 50 323 65 q 351 80 373 105 q 395 130 410 163 q 425 196 435 231 q 445 267 449 302 q 454 338 454 369 z m 542 378 q 542 343 535 308 q 529 272 518 237 q 506 203 489 170 q 472 138 450 110 q 429 83 405 61 q 381 38 354 21 q 327 4 297 -5 q 268 -15 235 -15 q 187 -15 151 5 q 115 25 90 59 q 66 94 54 140 q 42 186 42 237 q 42 270 47 304 q 53 339 64 373 q 75 407 90 438 q 105 470 125 497 q 146 524 169 549 q 193 573 221 591 q 250 609 281 619 q 313 630 349 630 q 398 630 435 610 q 471 590 495 555 q 519 521 530 475 q 542 429 542 378 z"},"(":{"x_min":0,"x_max":299,"ha":299,"o":"m 351 756 q 318 731 287 691 q 255 651 229 597 q 202 542 182 475 q 162 408 151 330 q 141 258 141 190 q 141 123 150 63 q 160 4 179 -45 q 199 -94 228 -127 l 206 -154 q 159 -128 126 -81 q 93 -33 74 29 q 55 90 51 164 q 47 237 58 314 q 69 395 95 468 q 120 542 156 604 q 192 665 239 711 q 285 758 337 783 z"},"C":{"x_min":0,"x_max":493,"ha":493,"o":"m 506 581 q 508 579 502 568 q 496 558 487 545 q 478 533 468 521 q 458 508 451 503 l 432 508 q 423 520 412 531 q 400 542 386 551 q 372 559 355 563 q 338 568 318 568 q 299 568 277 560 q 254 552 235 537 q 204 513 183 477 q 162 441 148 401 q 135 361 129 322 q 123 283 123 252 q 123 199 137 161 q 151 123 173 99 q 195 75 222 64 q 248 53 272 53 q 286 53 302 57 q 318 60 338 69 q 357 78 381 92 q 404 107 433 129 q 435 128 437 124 q 439 121 441 116 q 443 112 445 108 q 447 104 448 103 q 415 70 385 48 q 355 25 327 12 q 300 -2 275 -8 q 250 -13 227 -13 q 188 -13 154 3 q 119 19 92 49 q 66 79 50 123 q 35 167 35 224 q 35 270 44 318 q 53 365 73 410 q 92 456 122 496 q 152 537 193 570 q 229 598 272 614 q 316 630 362 630 q 410 630 447 616 q 484 602 506 581 z"},"W":{"x_min":0,"x_max":771,"ha":771,"o":"m 818 589 q 786 582 767 576 q 749 570 745 559 l 569 29 q 565 18 557 10 q 548 3 538 -2 q 527 -7 517 -10 q 507 -14 500 -15 l 416 451 l 229 29 q 224 18 215 10 q 205 2 194 -3 q 183 -8 173 -11 q 162 -14 155 -15 l 118 555 q 117 567 104 575 q 92 583 61 589 l 64 615 l 265 615 l 262 589 q 240 587 227 583 q 214 580 207 575 q 200 571 198 566 q 196 561 197 555 l 225 146 l 431 615 l 464 615 l 554 146 l 689 559 q 691 565 687 569 q 683 574 674 577 q 666 581 653 583 q 641 586 625 589 l 629 615 l 821 615 z"},"A":{"x_min":0,"x_max":568,"ha":568,"o":"m 181 214 l 114 59 q 107 44 122 38 q 136 31 173 26 l 170 0 l -20 0 l -16 26 q 15 32 33 38 q 51 45 58 59 l 292 596 q 301 604 311 610 q 322 617 333 623 q 344 629 354 635 q 365 640 373 643 l 480 59 q 481 52 484 47 q 487 42 493 38 q 499 34 508 31 q 518 28 533 26 l 530 0 l 330 0 l 333 26 q 368 28 382 36 q 397 43 394 59 l 367 214 z m 357 264 l 312 518 l 203 264 z"},"f":{"x_min":0,"x_max":289,"ha":289,"o":"m 459 684 q 449 677 436 667 q 422 657 410 648 q 397 639 386 633 q 375 626 369 626 q 362 626 355 635 q 348 644 340 654 q 332 665 322 673 q 312 682 298 682 q 282 682 269 672 q 255 662 245 644 q 235 627 228 604 q 221 582 216 558 q 210 534 207 510 q 204 485 202 465 l 199 442 l 323 442 l 333 427 q 329 420 320 412 q 311 403 302 395 q 292 387 283 380 q 274 374 269 371 q 267 378 261 382 q 256 386 248 389 q 239 391 227 392 q 214 393 197 393 l 193 393 l 159 94 q 152 41 135 -10 q 118 -60 92 -103 q 67 -146 35 -180 q 2 -215 -34 -237 l -49 -203 q -24 -189 -5 -160 q 15 -131 30 -94 q 45 -57 55 -14 q 64 28 69 68 l 106 393 l 35 393 l 26 410 l 80 442 l 112 442 q 117 481 124 517 q 131 553 144 585 q 157 618 178 646 q 198 674 229 697 q 255 716 281 729 q 306 742 336 742 q 359 742 378 734 q 397 726 413 716 q 428 706 440 696 q 452 687 459 684 z"},"Q":{"x_min":0,"x_max":565,"ha":565,"o":"m 454 369 q 454 410 446 447 q 437 483 421 510 q 404 537 380 552 q 356 568 325 568 q 290 568 262 554 q 234 540 213 515 q 191 491 176 460 q 160 429 150 394 q 140 360 135 325 q 130 291 130 260 q 130 214 139 176 q 148 137 165 109 q 182 82 206 66 q 230 50 259 50 q 295 50 323 65 q 351 80 373 105 q 395 130 410 163 q 425 196 435 231 q 445 267 449 302 q 454 338 454 369 z m 563 -59 q 549 -80 535 -97 q 521 -114 508 -125 q 495 -137 484 -144 q 474 -150 466 -150 q 438 -150 412 -135 q 386 -120 360 -99 q 335 -78 310 -54 q 285 -31 259 -14 q 247 -15 235 -15 q 187 -15 151 5 q 115 25 90 59 q 66 94 54 140 q 42 186 42 237 q 42 270 47 304 q 53 339 64 373 q 75 407 90 438 q 105 470 125 497 q 146 524 169 549 q 193 573 221 591 q 250 609 281 619 q 313 630 349 630 q 398 630 435 610 q 471 590 495 555 q 519 521 530 475 q 542 429 542 378 q 542 343 535 308 q 529 272 518 237 q 506 203 489 170 q 472 138 450 110 q 424 78 395 52 q 365 25 331 8 q 352 -3 371 -17 q 390 -31 408 -44 q 427 -56 445 -65 q 463 -73 480 -73 q 486 -73 492 -72 q 498 -70 506 -66 q 514 -62 525 -54 q 535 -47 550 -37 z"},"w":{"x_min":0,"x_max":646,"ha":646,"o":"m 643 420 q 643 407 640 390 q 637 374 630 350 q 623 327 611 296 q 598 265 579 224 q 560 182 532 129 q 505 76 468 8 q 464 5 456 2 q 449 -2 440 -6 l 424 -14 q 417 -18 412 -20 l 394 -4 q 389 38 382 84 q 376 131 369 176 q 362 220 355 257 q 349 295 342 317 q 341 307 335 288 q 330 269 321 244 q 312 219 300 190 q 288 161 274 131 q 260 101 245 70 q 229 40 213 12 q 209 10 201 5 q 192 1 183 -4 q 174 -9 165 -13 q 156 -18 151 -20 l 135 -4 q 131 23 128 57 q 124 90 120 125 q 117 160 113 194 q 109 229 106 260 q 102 290 98 314 q 94 339 91 353 q 88 366 84 374 q 80 382 75 386 q 70 391 65 392 q 61 393 56 393 q 52 393 44 391 q 36 390 28 387 q 19 385 8 381 l 0 404 q 21 414 41 424 q 61 433 78 440 q 96 448 109 452 q 122 457 129 457 q 143 457 149 441 q 156 425 165 390 q 167 377 171 354 q 175 331 179 302 q 183 274 186 243 q 190 211 193 183 q 196 154 198 131 q 201 108 202 96 q 221 134 240 177 q 260 221 276 263 q 292 306 302 345 q 312 384 314 415 q 322 422 332 429 q 343 437 353 443 q 363 449 373 453 q 382 457 388 457 q 390 457 393 449 q 396 441 399 428 q 402 415 406 397 q 410 380 414 362 q 417 344 421 326 q 424 308 427 293 q 430 270 435 244 q 439 217 444 190 q 448 164 451 137 q 455 111 458 88 q 491 148 513 195 q 535 242 548 277 q 561 312 566 338 q 571 363 571 380 q 571 391 564 396 q 557 402 544 402 q 538 402 527 400 q 517 398 506 395 l 496 418 q 513 428 530 436 q 546 443 560 448 q 574 453 585 455 q 596 457 602 457 q 610 457 617 456 q 625 455 630 451 q 636 447 639 439 q 643 432 643 420 z"},"-":{"x_min":0,"x_max":319,"ha":319,"o":""},"E":{"x_min":0,"x_max":472,"ha":472,"o":"m 433 129 q 428 108 423 88 q 417 68 413 51 q 408 33 404 20 q 399 7 396 0 l -1 0 l 2 26 q 33 33 51 41 q 69 49 70 56 l 140 559 q 141 565 126 574 q 112 583 80 589 l 83 615 l 457 615 l 470 602 q 467 589 463 573 q 459 557 455 540 q 450 523 445 508 q 439 493 436 483 l 410 483 q 415 528 408 547 q 401 566 384 566 l 225 566 l 196 359 l 378 359 l 389 344 q 384 337 378 329 q 372 321 365 313 q 359 306 352 299 q 346 292 340 288 q 333 296 325 301 q 316 307 304 310 q 292 312 275 314 q 257 315 232 315 l 190 315 l 159 80 q 158 73 160 67 q 163 62 172 57 q 181 53 199 51 q 217 49 246 49 l 300 49 q 321 49 335 52 q 350 56 362 65 q 374 75 385 93 q 396 110 410 139 z"},"s":{"x_min":0,"x_max":359,"ha":359,"o":"m 355 412 q 346 401 336 390 q 327 380 318 372 q 309 364 301 359 q 294 354 290 354 q 283 354 275 363 q 268 372 258 382 q 248 393 235 402 q 222 411 205 411 q 191 411 179 406 q 167 402 158 394 q 148 385 143 374 q 137 362 137 348 q 137 329 155 310 q 172 292 212 273 q 232 263 252 251 q 271 239 287 223 q 303 208 312 187 q 322 167 322 141 q 322 107 304 78 q 286 48 257 27 q 229 5 194 -8 q 160 -20 128 -20 q 102 -20 78 -13 q 55 -6 36 5 q 18 15 7 28 q -4 40 -4 50 q -4 56 2 68 q 8 80 17 92 q 25 104 34 112 q 42 121 48 121 q 51 121 56 115 q 60 108 66 98 q 72 88 80 76 q 88 65 100 55 q 112 45 128 38 q 144 32 165 32 q 181 32 196 38 q 210 43 221 54 q 231 64 238 78 q 244 92 244 108 q 244 126 236 141 q 228 156 214 169 q 201 181 184 191 q 167 202 148 210 q 123 223 105 235 q 88 248 77 261 q 66 274 62 289 q 58 303 58 319 q 58 350 74 375 q 90 400 115 419 q 140 437 171 447 q 202 457 231 457 q 256 457 274 451 q 292 445 307 438 q 321 430 332 422 q 344 415 355 412 z"},">":{"x_min":0,"x_max":417,"ha":417,"o":"m 389 307 q 385 295 379 281 q 374 266 368 256 l 24 123 l 14 136 q 16 141 19 148 q 21 156 24 164 q 26 171 29 179 q 32 186 34 190 l 292 289 l 60 389 l 53 408 q 59 413 64 417 q 68 421 73 426 q 79 430 84 434 q 90 438 98 442 l 378 322 z"},"l":{"x_min":0,"x_max":246,"ha":246,"o":"m 226 42 q 178 11 144 -4 q 110 -20 83 -20 q 69 -20 59 -5 q 48 9 48 38 q 48 50 52 79 q 55 108 61 148 q 66 188 74 235 q 82 283 89 333 q 97 383 104 432 q 112 480 117 523 q 123 565 127 598 q 130 630 130 647 q 130 659 128 665 q 126 672 123 675 q 119 678 115 679 q 110 680 105 680 q 102 680 93 678 q 85 676 77 673 q 67 670 56 667 l 48 691 q 69 700 92 709 q 114 718 135 726 q 155 733 171 738 q 188 742 195 742 q 208 742 217 733 q 225 725 225 702 q 225 683 221 650 q 217 617 211 574 q 206 532 198 483 q 190 435 183 385 q 175 335 167 287 q 160 239 154 198 q 148 157 144 125 q 141 94 141 77 q 141 61 145 54 q 150 48 158 48 q 169 48 183 52 q 198 56 220 64 z"},"8":{"x_min":0,"x_max":419,"ha":419,"o":"m 156 459 q 156 440 164 426 q 172 412 185 400 q 198 389 215 378 q 232 368 251 358 q 266 369 278 381 q 290 393 299 407 q 308 422 313 439 q 318 456 318 476 q 318 514 297 534 q 276 554 240 554 q 222 554 207 546 q 191 538 180 524 q 169 511 163 494 q 156 477 156 459 z m 293 167 q 293 193 285 212 q 276 231 263 246 q 250 261 232 272 q 214 284 196 294 q 174 278 157 262 q 140 245 128 226 q 116 207 110 184 q 103 162 103 134 q 103 113 109 95 q 115 78 127 65 q 138 52 154 45 q 170 38 189 38 q 214 38 234 50 q 253 61 266 79 q 279 98 286 121 q 293 144 293 167 z m 399 489 q 399 462 389 440 q 379 418 364 400 q 348 382 328 366 q 308 351 288 338 q 306 327 323 313 q 340 300 353 283 q 366 266 373 244 q 381 222 381 194 q 381 152 363 115 q 345 77 315 48 q 285 19 246 2 q 207 -15 164 -15 q 126 -15 99 -4 q 71 7 53 26 q 34 45 25 70 q 16 95 16 122 q 16 155 29 183 q 41 212 61 236 q 82 260 108 279 q 134 299 161 313 q 145 323 130 334 q 116 345 105 360 q 94 374 87 392 q 81 410 81 434 q 81 470 96 501 q 112 532 138 554 q 164 577 198 590 q 232 603 269 603 q 302 603 326 594 q 351 586 367 571 q 383 556 391 535 q 399 514 399 489 z"},"\\":{"x_min":0,"x_max":406,"ha":406,"o":"m 322 -164 q 317 -162 308 -159 q 299 -156 289 -152 q 280 -148 271 -144 q 263 -140 260 -137 l 70 769 l 89 781 q 96 779 104 776 q 112 773 121 770 q 130 767 138 763 q 146 759 152 754 l 340 -151 z"},"e":{"x_min":0,"x_max":403,"ha":403,"o":"m 378 371 q 378 357 375 343 q 372 328 362 311 q 353 295 334 277 q 316 259 287 240 q 258 221 215 201 q 173 181 114 159 q 117 133 125 112 q 133 90 144 75 q 155 60 167 52 q 180 43 193 43 q 203 43 218 46 q 233 49 252 58 q 271 66 296 81 q 320 96 350 119 q 353 118 355 114 q 358 111 360 107 q 363 103 364 100 l 367 94 q 327 60 296 37 q 265 15 240 2 q 214 -10 194 -15 q 173 -20 154 -20 q 136 -20 115 -11 q 93 -2 74 18 q 55 38 42 70 q 28 102 28 148 q 28 186 38 222 q 47 259 64 292 q 82 325 107 355 q 132 384 164 410 q 174 418 189 427 q 204 436 220 442 q 237 449 254 453 q 271 457 288 457 q 311 457 328 449 q 345 442 356 430 q 368 417 373 402 q 378 387 378 371 z m 192 375 q 178 360 164 341 q 150 321 139 299 q 128 277 121 252 q 114 228 113 202 q 172 226 206 245 q 241 265 258 282 q 276 299 281 315 q 286 331 286 348 q 286 362 282 372 q 279 382 273 388 q 267 395 260 398 q 252 401 245 401 q 237 401 221 395 q 206 388 192 375 z"},"b":{"x_min":0,"x_max":477,"ha":477,"o":"m 298 385 q 290 385 274 375 q 258 364 239 345 q 220 326 199 298 q 178 271 159 237 q 154 202 151 175 q 148 147 148 132 q 148 120 156 105 q 164 91 176 79 q 188 67 202 60 q 217 52 232 52 q 248 52 261 57 q 275 62 286 71 q 298 80 307 91 q 317 102 324 113 q 335 130 342 148 q 349 167 353 186 q 357 205 358 224 q 360 242 360 259 q 360 290 354 313 q 349 337 341 353 q 332 369 321 377 q 310 385 298 385 z m 445 298 q 444 246 427 193 q 411 141 375 92 q 358 70 338 50 q 317 29 293 14 q 269 -1 241 -11 q 213 -20 182 -20 q 172 -20 159 -15 q 146 -10 132 0 q 118 9 105 21 q 92 34 82 48 q 71 62 65 78 q 59 94 59 110 q 59 123 62 149 q 65 176 70 212 q 75 247 81 289 q 87 331 94 375 q 101 418 107 460 q 114 503 119 540 q 124 576 127 604 q 130 632 130 647 q 130 659 127 665 q 125 672 121 675 q 117 678 113 679 q 108 680 104 680 q 100 680 92 678 q 83 676 76 673 q 66 670 56 667 l 49 691 q 70 701 94 710 q 117 719 138 726 q 159 733 176 738 q 192 742 199 742 q 213 742 218 733 q 224 725 224 702 q 224 688 221 664 q 219 640 215 610 q 211 580 206 544 q 201 509 195 472 q 189 435 183 396 q 177 358 171 322 q 196 361 222 387 q 247 413 270 428 q 293 444 313 450 q 333 457 348 457 q 369 457 386 447 q 404 437 417 416 q 431 396 438 366 q 445 336 445 298 z"},"%":{"x_min":0,"x_max":654,"ha":654,"o":"m 532 194 q 532 237 518 258 q 504 278 485 278 q 470 278 458 268 q 447 259 439 243 q 431 228 425 208 q 420 189 417 169 q 414 150 412 132 q 411 114 411 102 q 411 62 423 43 q 436 24 458 24 q 472 24 483 33 q 494 42 502 56 q 510 70 516 88 q 521 106 525 125 q 528 145 530 162 q 532 180 532 194 z m 607 188 q 607 154 596 118 q 584 82 562 52 q 541 23 510 4 q 479 -15 441 -15 q 417 -15 397 -5 q 377 5 364 22 q 350 40 342 64 q 334 87 334 115 q 334 148 346 184 q 358 220 380 249 q 402 278 433 297 q 464 316 502 316 q 526 316 545 307 q 565 297 579 280 q 593 263 600 240 q 607 216 607 188 z m 127 6 q 122 3 113 0 q 104 -3 95 -7 q 85 -10 76 -12 q 66 -15 61 -17 l 51 0 l 530 582 q 536 585 545 589 q 553 592 562 595 q 571 598 579 600 q 588 603 594 604 l 606 588 z m 247 481 q 247 525 233 545 q 219 564 199 564 q 184 564 172 555 q 161 545 153 530 q 145 515 140 495 q 134 476 131 456 q 127 437 126 419 q 125 401 125 389 q 125 349 138 330 q 151 311 173 311 q 187 311 198 320 q 208 329 217 343 q 225 357 230 375 q 236 394 240 413 q 244 432 245 449 q 247 467 247 481 z m 322 475 q 322 441 310 406 q 299 370 277 340 q 255 310 225 291 q 194 272 155 272 q 131 272 111 282 q 92 292 78 310 q 64 327 57 351 q 49 375 49 401 q 49 424 55 448 q 60 471 70 494 q 80 516 95 536 q 109 556 128 571 q 146 586 169 595 q 191 604 217 604 q 241 604 260 594 q 280 584 293 567 q 307 550 314 526 q 322 503 322 475 z"},"m":{"x_min":0,"x_max":735,"ha":735,"o":"m 707 42 q 661 15 625 -2 q 589 -20 566 -20 q 552 -20 542 -5 q 531 11 531 37 q 531 46 534 67 q 538 88 542 117 q 547 146 553 178 q 559 210 564 241 q 569 272 572 299 q 575 325 575 341 q 575 369 569 381 q 563 393 555 393 q 547 393 534 387 q 522 382 507 370 q 491 358 474 339 q 457 320 439 293 q 429 277 422 261 q 415 246 410 228 q 405 210 402 189 q 398 169 394 144 q 387 100 385 69 q 384 39 385 19 q 378 15 366 10 q 354 4 342 -1 q 329 -6 317 -11 q 306 -17 299 -20 l 283 -4 q 293 46 303 98 q 313 151 321 197 q 328 244 333 280 q 337 316 337 334 q 337 367 330 380 q 323 393 311 393 q 305 393 293 387 q 282 382 266 370 q 251 358 233 340 q 216 321 199 294 q 189 279 182 263 q 175 248 170 229 q 165 211 160 190 q 156 169 152 144 q 145 100 142 69 q 140 39 141 19 q 134 15 123 10 q 111 4 99 -1 q 86 -6 75 -11 q 63 -17 58 -20 l 40 -4 q 50 48 60 104 q 69 159 77 209 q 85 260 90 300 q 94 340 94 361 q 94 373 93 379 q 91 386 89 389 q 86 393 83 394 q 79 395 75 395 q 70 395 62 393 q 53 391 45 389 q 35 386 24 382 l 18 406 q 38 415 61 424 q 83 433 103 440 q 123 448 138 452 q 154 457 161 457 q 168 457 173 455 q 177 452 180 446 q 182 440 183 429 q 184 418 184 401 q 184 396 183 389 q 183 381 182 373 q 181 364 180 355 q 179 346 179 338 q 208 372 233 394 q 258 417 280 431 q 303 445 323 451 q 344 457 364 457 q 382 457 394 450 q 406 443 414 431 q 421 419 424 404 q 427 389 427 373 q 427 365 427 359 q 427 353 426 343 q 454 375 478 396 q 501 418 522 431 q 543 445 562 451 q 581 457 599 457 q 613 457 625 452 q 637 448 646 438 q 654 427 659 411 q 664 395 664 371 q 664 353 661 327 q 658 302 653 274 q 648 246 643 217 q 638 188 633 161 q 628 134 625 113 q 622 91 622 77 q 622 61 627 55 q 632 49 640 49 q 654 49 668 53 q 681 57 701 64 z"},"#":{"x_min":0,"x_max":419,"ha":419,"o":"m 388 472 l 457 472 l 466 459 q 464 454 461 447 q 458 440 455 434 q 452 427 448 421 q 445 415 443 411 l 364 411 l 319 291 l 390 291 l 399 277 q 397 272 394 266 q 391 260 388 253 q 385 246 382 240 q 379 234 377 229 l 295 229 l 240 83 q 231 76 218 71 q 205 66 192 62 l 182 72 l 241 229 l 157 229 l 102 83 q 93 76 80 71 q 66 66 54 62 l 42 72 l 102 229 l 34 229 l 25 242 q 27 247 30 253 q 32 259 35 266 l 42 279 q 45 286 48 291 l 125 291 l 171 411 l 101 411 l 92 422 q 96 433 103 448 q 109 462 115 472 l 194 472 l 247 611 q 257 619 271 623 q 284 626 294 631 l 305 620 l 249 472 l 333 472 l 385 611 q 396 619 409 623 q 422 626 433 631 l 444 620 z m 180 291 l 264 291 l 310 411 l 226 411 z"},",":{"x_min":0,"x_max":211,"ha":211,"o":"m 160 52 q 160 37 154 19 q 147 0 137 -20 q 126 -41 112 -61 q 98 -82 81 -100 q 65 -119 47 -134 q 30 -150 13 -160 l -8 -141 q 30 -101 48 -66 q 67 -31 67 -4 q 67 5 64 14 q 62 22 55 29 q 49 35 39 38 q 28 42 14 40 l 10 67 q 16 73 32 82 q 47 90 66 98 q 84 106 101 111 q 118 117 127 117 q 136 112 142 107 q 148 102 152 95 q 156 87 158 77 q 160 67 160 52 z"},"n":{"x_min":0,"x_max":505,"ha":505,"o":"m 489 42 q 467 28 446 17 q 425 6 407 -2 q 389 -11 375 -15 q 360 -20 350 -20 q 333 -20 323 -5 q 312 11 312 37 q 312 46 316 68 q 319 90 323 119 q 328 148 334 181 q 339 214 344 244 q 349 273 352 297 q 355 321 355 332 q 355 366 348 380 q 341 394 322 394 q 315 394 301 387 q 287 380 269 367 q 250 353 231 332 q 211 312 194 283 q 180 260 172 227 q 164 194 155 147 q 151 125 149 107 q 146 90 145 74 q 144 59 144 46 q 144 32 144 19 q 138 15 126 10 q 114 4 102 -1 q 89 -6 78 -11 q 66 -17 61 -20 l 43 -4 q 50 29 57 65 q 63 102 69 139 q 75 176 80 211 q 85 246 89 276 q 93 306 95 328 q 97 351 97 362 q 97 374 96 380 q 95 387 93 390 q 90 393 87 394 q 83 395 79 395 q 75 395 66 393 q 58 391 49 389 q 40 386 28 382 l 21 406 q 41 415 64 424 q 87 433 107 440 q 128 448 144 452 q 159 457 166 457 q 172 457 176 455 q 180 453 182 447 q 185 441 185 430 q 186 419 186 402 q 186 396 186 388 q 185 380 185 371 q 184 362 183 353 q 182 344 182 338 q 208 370 235 392 q 262 415 287 429 q 313 443 337 450 q 361 457 383 457 q 398 457 410 453 q 422 449 430 439 q 438 430 443 414 q 447 398 447 375 q 447 357 444 333 q 440 308 436 279 q 431 251 425 221 q 419 190 415 163 q 410 136 406 113 q 403 91 403 77 q 403 61 408 54 q 412 48 421 48 q 432 48 446 52 q 459 56 479 64 z"},"h":{"x_min":0,"x_max":504,"ha":504,"o":"m 486 42 q 440 15 404 -2 q 368 -20 346 -20 q 332 -20 321 -5 q 310 11 310 37 q 310 46 312 68 q 315 90 320 119 q 325 148 330 181 q 335 214 340 244 q 345 273 348 297 q 351 321 351 332 q 351 350 349 361 q 348 373 344 380 q 341 387 335 390 q 329 393 319 393 q 313 393 298 387 q 284 380 265 367 q 247 354 227 333 q 207 312 189 284 q 176 261 167 226 q 158 191 151 147 q 147 120 145 100 q 142 81 141 65 q 140 50 140 39 q 140 28 140 19 q 134 15 122 10 q 111 4 98 -1 q 86 -6 74 -11 q 63 -17 57 -20 l 40 -4 q 44 22 51 61 q 57 100 64 146 q 72 191 80 242 q 88 292 96 343 q 104 394 110 442 q 117 490 122 530 q 127 571 131 601 q 134 632 134 647 q 134 659 132 665 q 130 672 128 675 q 125 678 121 679 q 118 680 114 680 q 109 680 100 678 q 91 676 82 673 q 71 670 59 667 l 52 691 q 73 700 95 709 q 118 718 138 726 q 159 733 175 738 q 191 742 198 742 q 212 742 220 733 q 228 725 228 702 q 228 690 225 664 q 222 638 218 603 q 213 568 207 529 q 202 490 196 454 q 190 417 186 387 q 181 356 178 338 q 206 371 234 394 q 261 417 287 431 q 313 445 337 451 q 361 457 383 457 q 398 457 410 453 q 421 449 428 439 q 436 429 439 413 q 442 397 442 374 q 442 356 439 332 q 436 307 432 279 q 427 250 422 220 q 416 190 412 163 q 407 136 404 113 q 401 91 401 77 q 401 61 406 54 q 412 48 418 48 q 432 48 446 52 q 459 57 477 64 z"},"z":{"x_min":0,"x_max":380,"ha":380,"o":"m 380 430 q 340 387 309 346 q 278 305 249 263 q 220 221 190 177 q 160 132 121 83 q 122 83 125 84 q 129 86 135 87 q 140 89 147 90 q 154 91 161 91 q 171 91 187 86 q 203 82 221 76 q 239 71 258 66 q 277 62 293 62 q 297 62 303 63 q 310 65 317 70 q 324 76 333 86 q 341 97 351 115 l 372 103 q 358 73 347 51 q 336 30 324 16 q 312 2 295 -4 q 279 -10 255 -10 q 232 -10 211 -5 q 189 0 170 7 q 151 13 134 18 q 117 23 103 23 q 95 23 86 21 q 77 18 66 13 q 55 8 41 1 q 27 -6 9 -15 l -4 4 q 20 33 46 68 q 71 102 97 138 q 122 174 146 209 q 171 245 193 277 q 215 309 234 335 q 252 361 267 377 l 131 377 q 119 377 111 375 q 103 373 96 366 q 89 359 83 346 q 77 333 69 313 l 46 318 q 56 362 66 399 q 76 436 80 457 q 89 455 101 451 q 114 447 131 447 l 369 447 z"},"B":{"x_min":0,"x_max":507,"ha":507,"o":"m 471 200 q 471 152 451 113 q 432 73 399 45 q 367 17 323 1 q 279 -15 230 -15 q 220 -15 206 -15 q 192 -14 177 -13 q 161 -12 144 -10 q 126 -9 110 -8 q 72 -4 30 0 l -1 0 l 2 26 q 33 33 51 41 q 68 49 69 56 l 141 579 q 120 576 103 573 q 85 569 68 565 l 68 599 q 113 612 166 621 q 219 630 287 630 q 374 630 421 598 q 468 565 468 508 q 468 482 460 459 q 452 435 437 415 q 422 395 401 379 q 380 363 355 353 q 380 348 402 334 q 423 321 438 301 q 454 280 462 255 q 471 229 471 200 z m 258 314 q 236 314 220 312 q 205 310 189 308 l 155 56 q 154 52 161 46 q 178 37 201 34 q 225 31 245 31 q 276 31 301 43 q 326 56 344 77 q 361 99 371 126 q 380 153 380 183 q 380 208 373 231 q 367 254 352 273 q 338 292 315 303 q 292 314 258 314 z m 271 585 l 248 585 q 237 585 228 585 l 196 356 l 212 356 q 243 356 273 362 q 303 368 326 382 q 349 396 363 421 q 377 445 377 482 q 377 511 367 531 q 356 551 341 563 q 326 575 307 580 q 288 585 271 585 z"},"K":{"x_min":0,"x_max":555,"ha":555,"o":"m 292 589 q 262 583 244 574 q 226 566 224 559 l 191 318 l 407 546 q 419 559 424 567 q 428 575 425 579 q 422 583 412 586 q 401 588 384 589 l 388 615 l 580 615 l 577 589 q 562 587 551 585 q 540 583 531 580 q 521 577 514 572 q 506 567 499 559 l 265 328 l 437 84 q 443 74 452 69 q 460 64 472 64 q 483 63 499 68 q 514 72 534 80 l 544 57 q 526 43 507 31 q 488 20 470 11 q 453 3 438 -2 q 422 -7 413 -7 q 398 -7 388 -1 q 378 4 367 22 l 190 309 l 156 56 q 154 50 169 41 q 184 33 215 26 l 211 0 l -1 0 l 2 26 q 33 33 51 41 q 69 49 70 56 l 140 559 q 141 565 126 574 q 112 583 80 589 l 83 615 l 296 615 z"},"R":{"x_min":0,"x_max":537,"ha":537,"o":"m 259 585 q 251 585 243 585 q 236 585 228 585 l 194 335 q 220 328 247 328 q 276 328 302 336 q 329 345 350 361 q 370 378 382 403 q 395 427 395 460 q 395 496 382 520 q 369 544 349 559 q 330 573 305 579 q 281 585 259 585 z m 540 55 q 521 42 501 31 q 481 20 463 11 q 446 3 432 -2 q 418 -7 412 -7 q 404 -7 396 -4 q 388 -2 380 5 q 373 12 365 24 q 356 37 348 57 l 245 286 q 230 287 216 289 q 201 291 188 294 l 156 56 q 154 50 170 41 q 185 33 216 26 l 212 0 l -1 0 l 2 26 q 33 33 51 41 q 69 49 70 56 l 141 578 q 122 575 104 572 q 85 569 67 565 l 68 599 q 90 605 114 611 q 137 617 164 621 q 190 625 219 627 q 249 630 282 630 q 327 630 364 620 q 401 610 427 590 q 452 570 466 541 q 480 512 480 474 q 480 454 471 426 q 461 399 442 373 q 422 346 392 324 q 361 302 318 292 l 430 95 q 438 80 446 73 q 454 65 465 63 q 476 62 491 66 q 506 70 529 78 z"},"T":{"x_min":0,"x_max":528,"ha":528,"o":"m 346 0 l 116 0 l 120 26 q 141 30 155 35 q 169 40 178 45 q 188 49 192 53 q 196 58 196 61 l 267 566 l 140 566 q 133 566 127 562 q 122 559 114 549 q 107 540 98 522 q 88 504 75 476 l 52 486 q 54 499 58 516 q 62 534 66 552 q 71 569 76 586 q 81 603 85 615 l 546 615 l 558 602 q 556 590 553 574 q 549 558 545 541 q 541 524 537 508 q 532 491 528 478 l 503 478 q 502 502 500 519 q 499 536 496 546 q 493 557 487 561 q 481 566 471 566 l 351 566 l 282 61 q 281 58 284 54 q 288 50 295 45 q 303 40 316 35 q 330 30 350 26 z"},"P":{"x_min":0,"x_max":487,"ha":487,"o":"m 495 460 q 495 418 478 382 q 461 345 432 318 q 403 291 365 275 q 326 259 282 259 q 264 259 245 263 q 226 268 212 275 l 206 316 q 223 310 238 305 q 253 300 270 300 q 301 300 326 311 q 352 321 370 339 q 388 358 398 384 q 408 410 408 442 q 408 483 395 510 q 382 538 361 554 q 339 571 311 578 q 282 585 251 585 l 239 585 q 234 585 229 585 l 156 56 q 155 53 158 49 q 161 46 169 42 q 177 38 192 34 q 207 30 229 26 l 226 0 l -1 0 l 2 26 q 33 33 51 41 q 69 49 70 56 l 142 578 q 125 576 106 572 q 88 569 68 564 l 68 598 q 111 613 164 621 q 216 630 279 630 q 330 630 369 619 q 409 608 437 587 q 465 565 480 534 q 495 502 495 460 z"},"|":{"x_min":0,"x_max":205,"ha":205,"o":"m 89 -137 q 84 -141 77 -145 q 70 -148 63 -152 q 55 -156 48 -159 q 40 -162 34 -164 l 19 -151 l 146 755 q 160 763 173 770 q 187 777 201 781 l 216 769 z"},"t":{"x_min":0,"x_max":317,"ha":317,"o":"m 297 63 q 272 44 247 29 q 222 13 199 2 q 177 -8 159 -14 q 140 -20 128 -20 q 115 -20 103 -13 q 91 -5 81 8 q 72 21 66 39 q 60 57 60 78 q 60 87 61 97 q 61 106 62 116 q 62 126 64 137 q 65 148 67 162 l 104 393 l 35 393 l 26 410 l 79 442 l 111 442 l 114 459 q 117 479 120 492 q 124 504 128 512 q 132 521 137 526 q 142 531 148 536 l 212 574 l 226 562 q 222 558 218 546 q 215 537 210 519 q 206 500 201 470 l 196 442 l 317 442 l 328 427 q 323 420 314 412 q 305 403 296 395 q 286 387 277 380 q 269 374 264 371 q 258 385 242 389 q 225 393 190 393 l 188 393 l 156 185 q 155 176 154 165 q 152 155 152 145 q 151 136 151 127 q 150 119 150 114 q 150 84 161 70 q 171 56 185 56 q 202 56 226 63 q 250 71 287 87 z"},"M":{"x_min":0,"x_max":753,"ha":753,"o":"m 764 589 q 751 589 735 585 q 718 581 701 573 l 641 56 q 640 50 656 41 q 672 33 704 26 l 700 0 l 488 0 l 492 26 q 523 33 542 41 q 562 49 563 56 l 614 500 l 354 0 l 326 0 l 193 496 l 129 56 q 128 50 143 41 q 157 33 189 26 l 186 0 l 2 0 l 6 26 q 38 33 55 41 q 72 49 73 56 l 148 571 q 133 581 117 585 q 101 589 88 589 l 92 615 l 230 615 q 235 615 238 614 q 240 612 243 608 q 246 604 248 595 q 250 587 254 574 l 372 147 l 596 574 q 603 587 608 595 q 613 604 616 608 q 620 612 624 614 q 627 615 631 615 l 767 615 z"},"g":{"x_min":0,"x_max":453,"ha":453,"o":"m 169 57 q 178 57 193 70 q 208 83 227 106 q 246 129 266 162 q 286 194 304 233 q 306 255 308 278 q 311 301 315 328 q 316 336 319 344 q 321 352 324 359 q 316 366 308 373 q 299 380 289 386 q 279 392 269 396 q 258 400 247 400 q 225 400 206 389 q 187 379 171 361 q 155 344 143 321 q 130 299 122 275 q 113 251 109 228 q 104 204 104 185 q 104 155 109 131 q 114 107 123 91 q 132 74 144 65 q 156 57 169 57 z m 440 435 q 423 421 414 401 q 404 381 400 346 q 393 288 390 241 q 387 194 385 153 q 382 112 379 75 q 376 38 370 0 q 361 -50 337 -95 q 313 -139 280 -172 q 248 -206 209 -225 q 170 -244 132 -244 q 110 -244 86 -238 q 62 -232 42 -224 q 21 -215 8 -205 q -5 -195 -5 -187 q -5 -178 2 -167 q 10 -155 19 -145 q 29 -134 38 -126 q 47 -119 50 -119 q 56 -119 63 -129 q 71 -138 84 -150 q 97 -161 118 -171 q 139 -180 172 -180 q 215 -180 242 -142 q 270 -104 284 -23 q 288 1 291 24 q 293 46 295 67 q 296 88 297 108 q 298 128 299 148 q 282 118 261 88 q 241 58 219 34 q 196 10 173 -5 q 150 -20 129 -20 q 113 -20 94 -11 q 75 -1 59 19 q 43 39 32 71 q 21 103 21 149 q 21 188 31 224 q 40 261 57 295 q 75 328 102 358 q 129 387 166 411 q 179 420 195 428 q 211 437 228 443 q 245 449 263 453 q 280 457 298 457 q 308 457 318 454 q 328 451 338 446 q 348 441 357 436 q 366 430 374 424 q 387 435 401 443 q 414 451 427 457 z"},"j":{"x_min":0,"x_max":255,"ha":255,"o":"m 196 425 q 196 419 195 406 q 193 393 191 375 q 189 356 187 336 q 185 315 183 295 q 181 275 179 259 q 177 242 176 231 q 172 197 167 147 q 162 97 153 36 q 144 -19 129 -57 q 114 -96 96 -123 q 78 -150 58 -170 q 38 -189 18 -205 q 4 -215 -11 -222 q -27 -230 -42 -235 q -58 -240 -72 -242 q -86 -244 -96 -244 q -112 -244 -128 -240 q -145 -235 -159 -229 q -172 -223 -181 -216 q -189 -208 -189 -204 q -189 -197 -182 -186 q -175 -174 -165 -163 q -156 -152 -146 -144 q -136 -136 -131 -136 q -127 -136 -120 -143 q -113 -149 -103 -157 q -92 -166 -78 -172 q -63 -179 -43 -179 q -22 -179 -7 -167 q 9 -156 21 -133 q 34 -109 43 -75 q 52 -41 60 5 q 66 42 71 74 q 75 107 78 135 q 82 163 84 184 q 86 206 87 220 q 88 232 91 253 q 93 273 95 295 q 97 316 99 335 q 100 354 100 361 q 100 373 99 379 q 97 386 94 389 q 92 392 88 393 q 84 394 80 394 q 76 394 68 392 q 60 391 52 388 q 42 386 32 382 l 24 405 q 45 415 67 424 q 90 433 110 440 q 130 448 145 452 q 161 457 167 457 q 181 457 188 451 q 196 445 196 425 z m 236 616 q 236 603 231 589 q 227 575 218 563 q 209 552 196 545 q 183 538 167 538 q 148 538 139 548 q 129 558 129 574 q 129 587 134 601 q 139 615 148 627 q 157 638 169 646 q 182 653 198 653 q 217 653 227 643 q 236 633 236 616 z"},"i":{"x_min":0,"x_max":256,"ha":256,"o":"m 236 42 q 190 14 155 -3 q 120 -20 97 -20 q 80 -20 70 -5 q 59 11 59 37 q 59 52 63 78 q 66 104 72 136 q 77 168 83 203 q 89 238 94 269 q 100 300 103 325 q 107 349 107 361 q 107 373 105 379 q 104 386 102 389 q 99 392 95 393 q 91 394 87 394 q 83 394 75 392 q 67 391 59 388 q 50 386 39 382 l 32 405 q 52 415 74 424 q 97 433 116 440 q 136 448 152 452 q 167 457 175 457 q 188 457 195 448 q 201 438 201 416 q 201 402 197 375 q 193 348 188 315 q 183 283 176 247 q 169 210 164 178 q 159 145 155 118 q 151 91 151 77 q 151 62 155 55 q 158 48 166 48 q 181 48 194 52 q 208 56 228 64 z m 248 616 q 248 603 243 589 q 239 575 230 563 q 221 552 208 545 q 196 538 180 538 q 161 538 151 548 q 142 558 142 574 q 142 587 146 601 q 151 615 160 627 q 169 638 182 646 q 194 653 210 653 q 229 653 239 643 q 248 633 248 616 z"},"y":{"x_min":0,"x_max":461,"ha":461,"o":"m 447 420 q 447 403 437 374 q 427 345 406 300 q 384 254 352 190 q 319 126 274 40 q 241 -23 209 -76 q 176 -128 142 -166 q 107 -203 70 -224 q 33 -244 -9 -244 q -25 -244 -40 -241 q -55 -238 -66 -233 q -77 -229 -84 -223 q -91 -218 -91 -213 q -91 -207 -85 -195 q -79 -183 -71 -171 q -62 -158 -53 -148 q -44 -137 -38 -134 q -14 -151 3 -157 q 21 -162 39 -162 q 74 -162 109 -127 q 145 -92 183 -27 q 178 2 170 37 q 163 72 155 110 q 146 147 136 184 q 127 221 118 254 q 108 287 100 313 q 91 339 84 354 q 73 379 65 386 q 57 394 49 394 q 44 394 36 392 q 28 391 21 388 q 11 386 1 382 l -6 405 q 15 415 35 424 q 55 434 72 441 q 89 448 102 453 q 115 457 122 457 q 136 457 145 443 q 153 429 165 395 q 174 369 185 335 q 195 300 206 260 q 217 221 227 177 q 238 134 247 91 q 262 121 276 151 q 291 181 304 210 q 318 239 329 266 q 341 292 349 314 q 357 335 362 352 q 367 368 367 376 q 367 401 341 402 q 333 403 323 400 q 312 397 298 391 l 288 414 q 323 435 355 446 q 387 457 406 457 q 414 457 422 456 q 429 455 435 451 q 440 447 444 439 q 447 432 447 420 z"},"@":{"x_min":0,"x_max":794,"ha":794,"o":"m 752 268 q 747 226 732 188 q 717 150 696 118 q 676 86 651 61 q 626 35 601 17 q 576 -1 552 -10 q 529 -20 509 -20 q 501 -20 492 -14 q 483 -9 475 6 q 467 21 461 48 q 456 75 455 118 q 442 96 426 72 q 410 47 392 27 q 374 6 354 -7 q 335 -20 316 -20 q 299 -20 281 -11 q 262 -1 246 19 q 230 39 220 71 q 209 103 209 149 q 209 188 218 224 q 226 261 242 295 q 259 329 284 358 q 309 388 344 411 q 357 420 373 428 q 390 437 407 443 q 424 449 442 453 q 459 457 475 457 q 494 457 512 448 q 529 439 544 429 q 557 437 571 444 l 597 457 l 609 435 q 601 428 595 423 q 589 417 585 410 q 582 403 578 393 q 575 383 572 366 q 564 331 558 295 q 552 260 548 229 q 543 198 541 175 q 539 151 539 140 q 539 115 541 99 q 543 83 547 74 q 551 64 557 61 q 562 57 568 57 q 580 57 597 72 q 614 86 630 112 q 646 137 660 172 q 673 208 680 249 q 692 332 678 395 q 664 458 631 501 q 598 544 550 566 q 503 588 449 588 q 405 588 366 575 q 327 562 293 538 q 259 515 230 483 q 202 451 181 413 q 159 375 145 333 q 130 290 124 246 q 112 157 129 89 q 147 21 186 -25 q 225 -71 281 -95 q 336 -119 400 -119 q 438 -119 475 -110 q 512 -101 544 -87 q 577 -74 603 -58 q 628 -43 644 -30 l 654 -63 q 636 -82 607 -103 q 578 -124 541 -142 q 504 -160 460 -171 q 416 -183 367 -183 q 285 -183 218 -154 q 152 -125 107 -72 q 62 -19 43 57 q 24 133 38 227 q 45 282 65 335 q 85 388 116 435 q 146 481 186 521 q 226 561 272 590 q 319 619 371 635 q 423 651 479 651 q 523 651 563 639 q 603 628 636 606 q 669 583 695 551 q 721 519 736 476 q 752 433 757 381 q 761 329 752 268 z m 461 197 q 464 219 468 244 q 472 269 476 292 q 480 316 484 336 q 487 356 490 369 q 476 380 459 390 q 442 400 423 400 q 402 400 384 389 q 366 379 351 361 q 336 344 325 321 q 314 299 306 275 q 299 251 295 228 q 291 204 291 185 q 291 155 296 131 q 301 107 309 91 q 317 74 328 65 q 338 57 350 57 q 361 57 374 68 q 387 80 402 100 q 417 119 432 144 q 447 169 461 197 z"},".":{"x_min":0,"x_max":211,"ha":211,"o":"m 149 77 q 149 61 144 45 q 139 29 128 15 q 118 2 104 -7 q 89 -15 71 -15 q 47 -15 36 -1 q 24 13 24 36 q 24 50 30 66 q 36 82 46 95 q 57 108 71 116 q 86 125 103 125 q 125 125 137 112 q 149 98 149 77 z"},"p":{"x_min":0,"x_max":481,"ha":481,"o":"m 300 386 q 289 386 271 375 q 253 364 233 344 q 212 325 192 297 q 172 269 156 234 q 153 215 149 194 q 146 173 142 149 q 149 135 162 120 q 175 104 192 91 q 208 78 226 69 q 244 61 261 61 q 286 61 304 74 q 323 87 333 112 q 341 129 346 148 q 352 167 354 186 q 356 206 357 224 q 358 243 358 259 q 358 290 353 314 q 348 338 340 354 q 332 370 322 378 q 311 386 300 386 z m 182 425 q 182 412 179 389 q 176 366 171 329 q 201 372 227 397 q 252 422 274 435 q 296 449 314 453 q 332 457 347 457 q 367 457 385 447 q 402 438 416 418 q 429 399 437 371 q 444 343 444 306 q 444 254 429 197 q 414 140 384 88 q 373 69 358 50 q 344 31 327 15 q 310 0 291 -10 q 272 -20 251 -20 q 236 -20 220 -11 q 205 -2 189 13 q 174 28 159 47 q 144 66 131 87 l 117 3 q 109 -47 104 -85 q 99 -122 97 -148 q 95 -174 95 -190 q 96 -206 98 -212 q 91 -214 79 -219 q 67 -223 54 -227 q 42 -232 30 -237 q 18 -241 12 -244 l -5 -229 q -3 -215 1 -186 q 6 -156 13 -117 q 21 -78 29 -31 q 37 15 46 63 q 54 111 62 158 q 70 205 76 245 q 82 285 86 315 q 89 346 89 361 q 89 373 87 379 q 85 386 82 389 q 79 392 75 393 q 71 394 66 394 q 62 394 54 392 q 46 391 38 388 q 29 386 19 382 l 11 405 q 32 415 55 424 q 78 434 99 441 q 119 448 135 453 q 151 457 158 457 q 169 457 176 450 q 182 444 182 425 z"},"X":{"x_min":0,"x_max":579,"ha":579,"o":"m 535 0 l 321 0 l 325 26 q 345 28 357 31 q 370 34 376 39 q 382 43 382 50 q 382 57 377 67 l 282 260 l 144 67 q 128 45 140 37 q 152 29 193 26 l 189 0 l -12 0 l -9 26 q 21 28 43 38 q 64 47 79 67 l 254 316 l 140 548 q 134 559 128 566 q 123 573 116 577 q 108 582 98 584 q 88 587 74 589 l 77 615 l 292 615 l 289 589 q 250 585 238 578 q 225 570 235 548 l 318 380 l 437 548 q 445 560 446 567 q 446 574 440 578 q 434 583 420 585 q 407 588 388 589 l 392 615 l 594 615 l 590 589 q 574 587 561 585 q 548 582 537 577 q 527 573 518 566 q 510 559 502 548 l 345 327 l 474 67 q 479 57 485 50 q 491 42 499 38 q 506 33 516 31 q 526 28 539 26 z"},"*":{"x_min":0,"x_max":356,"ha":356,"o":"m 208 585 l 333 679 q 337 676 343 671 q 349 666 355 660 q 362 655 367 649 q 373 644 375 640 l 372 618 l 220 554 l 344 497 q 343 491 341 482 q 339 473 337 464 q 334 454 332 446 q 330 437 328 432 l 307 421 l 200 522 l 198 372 q 192 369 184 365 q 176 360 168 357 q 159 353 151 350 q 143 347 138 346 l 123 357 l 166 522 l 41 428 q 36 432 30 437 q 23 442 17 447 q 11 453 5 458 q 0 463 -3 467 l 2 490 l 153 553 l 29 611 q 30 617 32 626 q 34 635 36 644 q 39 653 41 662 q 43 670 45 675 l 66 686 l 173 585 l 175 736 q 180 739 188 743 q 196 747 205 751 q 213 754 221 758 q 229 761 235 762 l 251 750 z"},"Y":{"x_min":0,"x_max":563,"ha":563,"o":"m 369 0 l 139 0 l 143 26 q 164 30 178 35 q 193 40 202 45 q 211 49 215 53 q 219 58 220 61 l 248 266 q 238 302 224 343 q 210 384 193 424 q 177 464 159 499 q 142 534 127 559 q 123 565 117 570 q 112 574 104 576 q 97 579 85 579 q 73 579 56 578 l 53 604 q 66 606 83 610 q 100 613 116 616 q 132 619 147 621 q 161 623 170 623 q 178 623 186 617 q 194 612 201 602 q 211 586 222 564 q 233 543 244 519 q 255 495 266 469 q 276 444 286 419 q 295 395 302 372 q 310 349 314 331 l 460 557 q 469 571 458 578 q 447 584 414 589 l 417 615 l 597 615 l 594 589 q 562 583 546 576 q 529 570 521 557 l 332 261 l 305 61 q 304 58 307 54 q 311 50 318 45 q 326 40 339 35 q 353 30 373 26 z"},"c":{"x_min":0,"x_max":401,"ha":401,"o":"m 412 399 q 402 391 389 381 q 377 372 365 363 q 353 355 342 349 q 332 344 325 344 q 319 344 311 353 q 303 361 292 372 q 282 382 270 391 q 257 400 242 400 q 221 400 204 390 q 187 380 172 363 q 158 346 147 324 q 137 302 129 277 q 122 253 118 228 q 115 203 115 180 q 115 148 121 123 q 128 98 139 80 q 151 62 167 53 q 183 43 202 43 q 212 43 227 47 q 241 51 259 59 q 277 68 299 82 q 321 96 348 118 q 352 112 357 104 q 363 97 366 93 q 328 58 297 36 q 266 14 241 2 q 215 -11 194 -15 q 173 -20 154 -20 q 136 -20 115 -12 q 93 -3 74 17 q 55 38 42 72 q 29 106 29 157 q 29 190 36 224 q 42 259 58 292 q 73 325 98 355 q 123 385 159 409 q 172 417 189 426 q 207 435 225 442 q 244 449 262 453 q 281 457 298 457 q 320 457 337 449 q 354 441 367 431 q 381 421 392 412 q 403 402 412 399 z"},"!":{"x_min":0,"x_max":211,"ha":211,"o":"m 149 77 q 149 61 144 45 q 139 29 128 15 q 118 2 104 -7 q 89 -15 71 -15 q 47 -15 36 -1 q 24 13 24 36 q 24 50 30 66 q 36 82 46 95 q 57 108 71 116 q 86 125 103 125 q 125 125 137 112 q 149 98 149 77 z m 130 194 q 121 187 111 182 q 102 177 89 173 l 78 184 l 114 651 q 122 657 134 664 q 146 671 160 679 q 173 686 186 692 q 199 698 209 701 l 228 688 z"},"/":{"x_min":0,"x_max":411,"ha":411,"o":"m 31 -137 q 26 -140 17 -144 q 7 -148 -3 -152 q -13 -156 -23 -159 q -33 -162 -39 -164 l -54 -151 l 386 754 q 393 759 401 763 q 410 767 419 770 q 428 773 437 776 q 446 779 453 781 l 470 769 z"},"[":{"x_min":0,"x_max":309,"ha":309,"o":"m 357 767 q 356 761 353 754 q 351 748 348 741 q 345 735 342 729 q 339 724 337 721 l 209 721 l 94 -103 l 219 -103 l 234 -119 q 233 -124 230 -130 q 228 -136 225 -142 q 223 -148 220 -154 q 217 -160 214 -164 l 9 -164 l 142 781 l 343 781 z"},"6":{"x_min":0,"x_max":419,"ha":419,"o":"m 227 319 q 202 319 176 306 q 150 292 124 263 q 121 243 119 223 q 118 203 118 182 q 118 146 125 119 q 131 92 143 75 q 154 58 171 49 q 188 41 208 41 q 227 41 241 49 q 255 57 266 71 q 276 84 284 102 q 292 120 296 138 q 301 157 303 176 q 305 194 305 210 q 305 243 298 264 q 291 286 279 298 q 268 310 254 315 q 241 319 227 319 z m 402 576 q 348 565 305 542 q 262 518 229 485 q 197 452 174 411 q 151 370 138 324 q 170 354 201 366 q 231 378 258 378 q 289 378 313 368 q 338 358 355 340 q 372 321 380 295 q 389 269 389 236 q 389 209 382 180 q 376 151 364 124 q 352 96 334 71 q 316 45 293 26 q 270 7 243 -4 q 215 -15 184 -15 q 151 -15 123 -1 q 95 13 75 38 q 54 63 43 98 q 31 133 31 176 q 31 229 42 279 q 54 330 75 375 q 97 421 129 460 q 160 500 201 531 q 242 562 291 582 q 341 603 398 610 z"},"r":{"x_min":0,"x_max":373,"ha":373,"o":"m 395 415 q 389 407 381 394 q 373 381 365 368 q 357 355 350 346 q 342 337 337 337 q 328 337 321 342 q 314 348 307 354 q 301 361 295 366 q 289 372 281 372 q 269 372 252 356 q 236 341 219 315 q 203 289 188 255 q 173 222 163 187 q 157 168 153 147 q 149 126 146 104 q 143 82 141 60 q 140 38 141 19 q 134 15 122 10 q 111 4 98 -1 q 86 -6 75 -11 q 63 -17 58 -20 l 40 -4 q 47 31 54 67 q 61 104 67 140 q 73 175 78 209 q 83 242 87 271 q 90 300 92 323 q 94 347 94 361 q 94 373 93 379 q 91 386 88 389 q 85 392 82 393 q 78 394 74 394 q 69 394 61 392 q 53 391 45 388 q 36 386 25 382 l 18 405 q 38 415 61 424 q 83 433 104 440 q 124 448 140 452 q 156 457 163 457 q 169 457 173 455 q 177 453 179 447 q 182 440 182 430 q 183 419 183 403 q 183 398 181 386 q 180 375 178 361 q 177 348 175 334 q 173 321 171 312 q 195 356 216 385 q 236 413 255 429 q 273 445 290 451 q 307 457 323 457 q 332 457 340 452 q 348 447 357 440 q 365 434 375 427 q 384 419 395 415 z"},"2":{"x_min":0,"x_max":419,"ha":419,"o":"m 399 494 q 399 473 394 451 q 388 429 375 402 q 361 375 338 342 q 316 309 282 268 q 249 228 202 177 q 156 127 95 65 l 276 65 q 283 65 290 69 q 296 73 302 80 q 307 86 312 95 q 316 103 320 112 q 329 132 334 158 l 360 151 l 333 0 l 6 0 l -1 36 q 87 125 147 193 q 208 261 245 314 q 282 367 298 407 q 314 446 314 477 q 314 512 294 533 q 274 554 237 554 q 219 554 205 544 q 190 535 180 521 q 170 506 165 489 q 159 471 157 454 q 142 444 123 437 q 104 430 83 427 l 72 448 q 76 474 94 501 q 112 528 140 551 q 168 574 203 588 q 238 603 274 603 q 300 603 323 597 q 345 591 362 578 q 379 564 389 544 q 399 523 399 494 z"},"{":{"x_min":0,"x_max":321,"ha":321,"o":"m 370 753 q 350 741 333 727 q 316 712 302 694 q 289 677 280 656 q 271 636 267 613 q 265 595 264 581 q 264 567 264 555 q 264 542 265 532 q 266 521 266 509 q 267 497 266 482 q 265 468 263 450 q 260 430 251 410 q 243 391 229 373 q 216 356 199 342 q 181 328 161 319 q 205 310 219 276 q 234 242 226 188 q 222 160 216 138 q 210 117 204 98 q 198 80 193 61 q 188 42 184 19 q 181 -6 181 -25 q 182 -44 188 -61 q 194 -77 208 -91 q 221 -105 243 -119 l 226 -154 q 189 -137 162 -119 q 136 -102 120 -80 q 104 -58 98 -30 q 92 -2 97 33 q 101 61 107 80 q 112 100 118 118 q 125 136 130 156 q 136 177 140 206 q 146 246 131 265 q 116 284 83 284 l 74 284 q 71 284 69 283 q 66 283 63 282 q 60 282 54 281 l 50 312 q 105 327 135 355 q 165 384 170 421 q 172 440 173 454 q 174 469 173 480 q 173 492 172 503 q 171 513 171 525 q 170 537 171 552 q 172 566 175 585 q 179 618 195 647 q 210 675 234 699 q 258 724 290 744 q 322 764 359 781 z"},"9":{"x_min":0,"x_max":419,"ha":419,"o":"m 212 273 q 245 273 270 291 q 296 308 316 334 q 321 371 321 411 q 321 449 314 476 q 308 502 297 518 q 286 534 272 541 q 258 548 244 548 q 212 548 191 531 q 170 515 157 489 q 145 464 139 433 q 134 403 134 376 q 134 346 141 326 q 149 306 161 294 q 172 283 186 278 q 200 273 212 273 z m 409 421 q 409 337 385 262 q 361 187 314 128 q 268 68 199 29 q 130 -10 40 -21 l 36 13 q 94 26 139 50 q 184 74 217 107 q 250 140 272 182 q 294 224 306 273 q 280 247 249 230 q 217 213 181 213 q 150 213 126 224 q 102 235 85 254 q 68 273 59 299 q 50 324 50 354 q 50 382 58 411 q 65 441 79 469 q 93 496 113 521 q 132 545 156 563 q 181 582 209 592 q 237 603 268 603 q 298 603 323 592 q 349 581 368 559 q 387 536 398 502 q 409 467 409 421 z"}," ":{"x_min":0,"x_max":213,"ha":213,"o":""},"I":{"x_min":0,"x_max":290,"ha":290,"o":"m 302 589 q 271 583 253 574 q 235 566 234 559 l 165 56 q 164 50 178 41 q 193 33 225 26 l 221 0 l 9 0 l 13 26 q 43 33 61 41 q 79 49 81 56 l 149 559 q 150 565 135 574 q 121 583 90 589 l 94 615 l 306 615 z"},"H":{"x_min":0,"x_max":615,"ha":615,"o":"m 292 589 q 262 583 244 574 q 226 566 224 559 l 195 347 l 455 347 l 484 559 q 485 565 470 574 q 456 583 424 589 l 427 615 l 641 615 l 637 589 q 606 583 588 574 q 570 566 569 559 l 500 56 q 499 50 513 41 q 528 33 560 26 l 556 0 l 343 0 l 347 26 q 378 33 396 41 q 414 49 415 56 l 448 297 l 188 297 l 156 56 q 154 50 169 41 q 184 33 215 26 l 211 0 l -1 0 l 2 26 q 33 33 51 41 q 69 49 70 56 l 140 559 q 141 565 126 574 q 112 583 80 589 l 83 615 l 296 615 z"},"4":{"x_min":0,"x_max":419,"ha":419,"o":"m 90 226 l 246 226 l 284 498 z m 388 211 q 376 196 365 186 q 354 177 344 168 l 313 168 l 298 56 q 297 52 300 49 q 302 45 309 42 q 315 38 327 34 q 338 30 356 26 l 353 0 l 122 0 l 125 26 q 155 31 174 36 q 192 41 203 45 q 214 49 218 53 q 223 57 224 61 l 237 168 l 22 168 l 8 186 l 277 572 q 299 581 320 590 q 341 600 356 608 l 371 590 l 321 226 l 377 226 z"},"~":{"x_min":0,"x_max":480,"ha":480,"o":"m 468 378 q 456 354 438 328 q 419 303 398 281 q 377 260 355 247 q 333 233 312 233 q 292 233 272 245 q 252 257 233 272 q 213 287 193 299 q 173 311 153 311 q 131 311 109 292 q 88 273 63 232 l 42 245 q 54 269 72 295 q 90 320 111 342 q 132 363 155 376 q 177 390 198 390 q 219 390 240 378 q 260 366 280 351 q 299 336 318 324 q 337 312 355 312 q 377 312 399 331 q 421 350 446 390 z"},"D":{"x_min":0,"x_max":561,"ha":561,"o":"m 257 585 q 250 585 243 585 q 235 585 228 584 l 158 72 q 157 64 160 60 q 163 55 171 51 q 179 48 193 46 q 208 45 229 45 q 265 45 295 58 q 325 72 349 95 q 374 118 392 148 q 411 179 424 214 q 436 248 443 284 q 449 321 449 355 q 449 407 437 450 q 425 492 401 522 q 377 553 341 569 q 305 585 257 585 z m 543 365 q 543 322 534 279 q 525 235 508 194 q 490 154 464 118 q 438 83 405 56 q 371 30 330 15 q 288 0 240 0 l -1 0 l 2 26 q 33 33 51 41 q 69 49 70 56 l 142 577 l 69 568 l 69 604 q 125 618 183 624 q 241 630 291 630 q 353 630 400 611 q 447 592 479 558 q 511 523 527 475 q 543 426 543 365 z"},"^":{"x_min":0,"x_max":458,"ha":458,"o":"m 417 310 q 403 299 391 291 q 379 284 363 276 l 348 289 l 270 642 l 109 310 q 104 305 96 300 q 89 295 81 290 q 74 286 67 282 q 60 278 55 276 l 46 289 l 252 714 q 258 720 267 726 q 276 732 285 738 q 294 744 303 749 q 312 753 319 757 z"},"0":{"x_min":0,"x_max":419,"ha":419,"o":"m 318 388 q 318 427 312 457 q 306 486 295 506 q 285 525 270 535 q 256 544 240 544 q 213 544 193 526 q 173 507 158 478 q 144 448 134 410 q 125 373 119 335 q 113 298 111 264 q 109 230 109 208 q 109 125 130 85 q 151 44 189 44 q 215 44 235 63 q 255 81 269 110 q 284 140 293 177 q 303 214 308 252 q 314 291 316 326 q 318 362 318 388 z m 407 383 q 407 351 404 317 q 401 283 394 249 q 386 214 374 180 q 361 146 343 115 q 327 88 308 64 q 289 41 266 23 q 244 5 218 -5 q 192 -15 163 -15 q 127 -15 101 2 q 75 19 57 49 q 39 79 30 119 q 21 160 21 206 q 21 270 34 337 q 48 404 83 469 q 98 497 117 521 q 136 546 158 564 q 181 582 208 593 q 234 603 265 603 q 299 603 325 587 q 352 571 370 542 q 388 512 398 472 q 407 431 407 383 z"},"F":{"x_min":0,"x_max":445,"ha":445,"o":"m 474 602 q 471 589 467 573 q 463 557 458 540 q 454 523 449 508 q 444 493 440 483 l 415 483 q 418 528 412 547 q 405 566 388 566 l 225 566 l 196 359 l 356 359 l 368 344 q 363 337 356 329 q 350 321 344 313 q 337 305 331 299 q 324 292 319 288 q 312 296 303 301 q 294 307 283 310 q 272 312 259 314 q 245 315 229 315 l 190 315 l 155 56 q 154 50 170 42 q 186 35 229 26 l 225 0 l -1 0 l 2 26 q 33 33 51 41 q 69 49 70 56 l 140 559 q 141 565 126 574 q 112 583 80 589 l 83 615 l 461 615 z"},"`":{"x_min":0,"x_max":296,"ha":296,"o":"m 278 513 q 268 507 260 504 q 253 501 244 500 l 116 685 l 133 705 q 139 706 149 707 q 160 709 172 710 q 184 712 195 713 q 206 714 212 714 z"},"k":{"x_min":0,"x_max":456,"ha":456,"o":"m 227 692 q 227 673 224 645 q 221 616 217 581 q 212 545 206 505 q 199 464 192 422 q 186 379 178 336 q 171 292 165 251 l 263 325 q 296 350 318 368 q 339 385 344 396 q 350 406 339 411 q 327 415 296 414 l 293 438 q 326 442 356 448 q 387 454 418 454 q 431 454 438 452 q 446 451 451 447 q 455 443 457 437 q 458 431 458 423 q 458 416 448 403 q 438 390 417 372 q 397 354 368 334 q 339 313 303 291 l 245 255 q 257 240 270 219 q 282 198 295 175 q 307 152 319 129 q 331 106 342 89 q 353 71 364 60 q 374 48 384 48 q 395 48 409 50 q 423 52 442 62 l 453 41 q 420 13 391 -3 q 362 -19 342 -19 q 325 -19 309 -3 q 292 13 277 38 q 262 62 247 93 q 232 123 218 152 q 204 181 190 205 q 176 229 164 241 q 158 201 153 165 q 148 129 145 100 q 142 71 142 50 q 141 29 144 20 q 137 16 125 11 q 113 5 100 0 q 87 -6 76 -11 q 64 -17 58 -20 l 40 -4 q 42 10 46 42 q 51 73 58 116 q 65 159 74 209 q 82 260 90 312 q 99 365 106 417 q 114 469 120 513 q 126 558 130 593 q 134 627 134 646 q 134 658 132 665 q 131 672 128 675 q 125 679 121 679 q 116 680 110 680 q 106 680 98 678 q 89 676 81 673 q 70 670 59 667 l 51 691 q 72 700 95 709 q 118 718 138 726 q 159 733 175 738 q 191 742 198 742 q 205 742 210 741 q 216 739 219 734 q 223 729 225 719 q 227 709 227 692 z"},"u":{"x_min":0,"x_max":512,"ha":512,"o":"m 491 40 q 452 13 421 -3 q 390 -20 370 -20 q 360 -20 350 -12 q 340 -3 333 14 q 325 32 321 61 q 317 89 319 130 q 300 97 278 70 q 256 42 232 22 q 208 2 184 -9 q 159 -20 134 -20 q 123 -20 109 -12 q 96 -5 84 10 q 73 25 65 48 q 57 70 57 100 q 57 115 60 136 q 62 158 66 183 q 70 208 75 235 q 79 261 83 285 q 87 310 90 329 q 92 349 92 361 q 92 373 91 379 q 89 386 87 389 q 84 392 80 393 q 77 394 72 394 q 68 394 60 392 q 52 391 43 388 q 34 386 23 382 l 17 405 q 37 415 60 424 q 83 433 103 440 q 123 448 139 452 q 155 457 162 457 q 176 457 181 448 q 186 438 186 416 q 186 402 183 379 q 180 356 175 329 q 171 302 166 273 q 161 244 157 217 q 152 189 149 167 q 146 144 146 129 q 146 89 156 70 q 166 51 181 51 q 190 51 205 60 q 220 68 239 88 q 258 107 281 138 q 304 168 328 213 q 331 233 335 254 q 338 275 342 294 q 345 314 347 331 q 349 348 349 361 q 349 373 348 379 q 347 386 344 389 q 342 392 339 393 q 335 394 331 394 q 327 394 319 392 q 312 391 305 388 q 296 386 287 382 l 279 405 q 299 415 321 424 q 343 433 363 440 q 382 448 397 452 q 413 457 420 457 q 434 457 438 448 q 442 438 442 416 q 442 402 439 380 q 437 357 432 331 q 428 305 423 277 q 418 249 414 222 q 410 195 407 172 q 404 149 404 133 q 404 88 410 68 q 417 48 429 48 q 442 48 454 52 q 466 55 484 62 z"},"]":{"x_min":0,"x_max":301,"ha":301,"o":"m 175 -164 l -27 -164 l -42 -149 q -40 -143 -37 -136 q -35 -130 -32 -124 q -29 -117 -27 -112 q -24 -106 -22 -103 l 106 -103 l 222 721 l 98 721 l 83 735 q 85 746 92 759 q 98 772 103 781 l 307 781 z"},"U":{"x_min":0,"x_max":606,"ha":606,"o":"m 632 589 q 602 583 585 574 q 569 566 568 559 l 524 250 q 516 186 494 136 q 472 87 440 53 q 408 20 366 2 q 325 -15 276 -15 q 236 -15 202 -3 q 167 9 142 33 q 117 56 103 91 q 89 125 89 170 q 89 196 93 226 l 141 559 q 142 565 127 574 q 113 583 81 589 l 84 615 l 296 615 l 292 589 q 262 583 244 574 q 226 566 225 559 l 182 249 q 180 235 179 221 q 178 207 178 194 q 178 160 186 133 q 194 105 210 86 q 226 67 250 57 q 273 47 305 47 q 336 47 362 62 q 388 77 408 102 q 427 126 440 159 q 452 192 457 229 l 502 559 q 503 565 490 574 q 477 583 445 589 l 448 615 l 636 615 z"},"o":{"x_min":0,"x_max":429,"ha":429,"o":"m 321 242 q 321 317 295 357 q 270 396 226 396 q 204 396 186 387 q 169 378 156 364 q 143 349 134 329 q 125 309 119 287 q 113 265 111 242 q 108 219 108 198 q 108 166 116 137 q 124 108 137 86 q 150 64 168 52 q 186 39 207 39 q 228 39 244 49 q 261 58 273 74 q 286 90 295 111 q 304 131 310 154 q 316 176 319 199 q 321 222 321 242 z m 406 273 q 406 240 398 207 q 391 173 376 142 q 361 110 340 82 q 319 53 292 31 q 279 21 264 11 q 250 2 234 -5 q 219 -12 203 -16 q 188 -20 173 -20 q 138 -20 110 -6 q 82 9 63 34 q 43 59 33 94 q 23 128 23 168 q 23 203 30 236 q 36 268 49 299 q 63 329 85 357 q 108 385 140 410 q 165 430 197 443 q 228 457 259 457 q 297 457 325 443 q 353 430 371 405 q 389 381 397 347 q 406 313 406 273 z"},"N":{"x_min":0,"x_max":609,"ha":609,"o":"m 638 589 q 605 584 589 576 q 573 567 572 559 l 492 -15 q 464 -12 448 -3 q 431 6 419 28 l 185 477 l 127 56 q 126 50 139 41 q 152 31 186 26 l 182 0 l 0 0 l 3 26 q 37 30 53 40 q 69 49 70 56 l 139 557 q 126 572 112 579 q 97 586 77 589 l 81 615 l 180 615 q 190 615 196 615 q 201 614 206 610 q 210 606 214 599 q 219 591 226 577 l 457 138 l 515 559 q 515 562 512 566 q 510 570 503 574 q 496 579 485 583 q 473 586 456 589 l 459 615 l 641 615 z"},"+":{"x_min":0,"x_max":384,"ha":384,"o":"m 359 292 q 358 287 355 281 q 353 274 349 267 q 346 260 343 254 q 339 248 337 244 l 224 244 l 206 113 q 201 111 195 108 q 188 106 182 104 q 175 102 168 100 q 162 98 157 97 l 146 109 l 165 244 l 44 244 l 34 257 q 36 262 39 269 q 42 275 45 281 q 48 288 51 294 q 54 300 57 305 l 173 305 l 192 437 q 196 438 203 440 q 209 442 216 445 q 223 447 230 449 q 236 451 241 452 l 252 440 l 233 305 l 350 305 z"},"G":{"x_min":0,"x_max":532,"ha":532,"o":"m 526 265 q 500 257 488 246 q 476 236 474 225 q 472 211 469 190 q 467 169 464 147 q 461 125 458 106 q 456 87 455 78 q 418 48 389 30 q 359 12 335 2 q 311 -8 290 -12 q 269 -15 249 -15 q 207 -15 168 2 q 129 19 100 50 q 70 82 52 128 q 35 175 35 233 q 35 280 45 326 q 56 373 76 415 q 95 458 122 494 q 149 531 183 557 q 224 591 275 610 q 326 630 389 630 q 404 630 422 626 q 441 623 460 617 q 479 610 495 601 q 512 592 525 580 q 528 578 522 567 q 516 557 507 544 q 497 532 487 520 q 476 508 469 503 l 451 507 q 428 540 397 555 q 367 571 321 571 q 301 571 276 558 q 250 546 224 524 q 201 505 182 473 q 164 441 150 404 q 137 367 129 328 q 122 289 122 254 q 122 202 137 164 q 152 126 176 101 q 200 77 229 65 q 258 53 287 53 q 311 53 334 59 q 357 66 374 79 l 394 225 q 394 229 392 234 q 390 239 379 244 q 368 249 347 254 q 326 259 289 265 l 292 291 l 529 291 z"},"q":{"x_min":0,"x_max":455,"ha":455,"o":"m 446 435 q 438 428 432 423 q 427 417 422 410 q 418 403 415 393 q 412 383 409 366 l 387 236 q 376 171 367 111 q 357 50 349 -4 q 342 -58 338 -101 q 333 -144 333 -173 q 333 -202 338 -212 q 332 -215 320 -219 q 308 -223 295 -228 q 282 -232 270 -237 q 258 -241 252 -244 l 233 -229 q 236 -211 241 -177 q 246 -144 253 -99 q 260 -54 269 0 q 278 54 287 111 q 268 83 249 60 q 229 36 210 18 q 190 0 171 -10 q 152 -20 134 -20 q 117 -20 98 -11 q 79 -1 62 19 q 45 39 34 71 q 23 103 23 149 q 23 188 33 225 q 43 262 62 296 q 82 330 109 359 q 136 389 170 411 q 184 420 200 428 q 217 437 234 443 q 251 449 269 453 q 286 457 301 457 q 322 457 342 447 q 362 437 378 427 q 391 435 405 443 q 419 450 433 457 z m 174 57 q 185 57 199 69 q 214 81 231 101 q 248 121 266 147 q 284 174 302 204 q 309 245 315 285 q 322 326 329 364 q 321 371 312 377 q 303 383 294 388 q 284 394 273 397 q 263 400 251 400 q 230 400 210 389 q 191 379 174 361 q 157 344 144 321 q 130 299 121 275 q 111 251 106 228 q 101 204 101 185 q 101 155 108 131 q 114 107 125 91 q 135 74 148 65 q 161 57 174 57 z"},"d":{"x_min":0,"x_max":481,"ha":481,"o":"m 298 201 q 302 231 309 270 q 315 308 322 351 q 314 360 305 368 q 296 377 286 384 q 276 391 265 396 q 254 400 243 400 q 221 400 203 389 q 184 379 169 361 q 153 344 141 321 q 129 299 121 275 q 113 251 109 228 q 105 204 105 185 q 105 155 111 131 q 116 107 126 91 q 135 74 147 65 q 160 57 173 57 q 184 57 198 67 q 212 77 229 96 q 245 115 262 141 q 280 168 298 201 z m 461 39 q 420 11 390 -4 q 360 -20 342 -20 q 333 -20 325 -13 q 316 -6 309 11 q 302 28 298 55 q 293 83 292 124 q 274 93 255 67 q 235 41 215 22 q 195 2 174 -9 q 153 -20 134 -20 q 116 -20 97 -10 q 78 0 61 21 q 45 42 34 75 q 23 108 23 154 q 23 192 32 229 q 41 265 58 298 q 76 331 102 360 q 127 388 162 411 q 176 420 192 428 q 208 436 225 443 q 242 449 260 453 q 277 457 293 457 q 303 457 314 451 q 325 445 336 437 q 341 470 346 502 q 351 534 354 561 q 358 589 360 611 q 362 633 362 647 q 362 659 361 665 q 359 672 356 675 q 353 678 349 679 q 345 680 340 680 q 336 680 327 678 q 319 676 311 673 q 301 670 289 667 l 283 691 q 305 701 327 710 q 350 720 369 727 q 389 734 404 738 q 419 742 426 742 q 441 742 448 733 q 456 725 456 702 q 456 683 452 653 q 449 623 443 585 q 438 548 430 506 q 423 463 416 420 q 408 377 401 336 q 394 294 388 258 q 383 222 379 193 q 376 165 376 148 q 376 97 382 73 q 388 49 399 49 q 412 49 425 52 q 438 55 455 62 z"},"1":{"x_min":0,"x_max":419,"ha":419,"o":"m 342 0 l 32 0 l 36 31 q 71 35 95 41 q 119 46 134 52 q 148 58 155 64 q 161 69 162 75 l 213 454 q 216 474 217 484 q 217 495 212 502 q 210 505 203 507 q 196 509 182 508 q 168 508 147 505 q 126 502 97 495 l 90 525 q 109 530 138 541 q 167 551 197 563 q 227 575 254 587 q 281 599 297 608 l 312 590 l 242 75 q 241 70 245 64 q 250 59 261 53 q 272 47 293 41 q 314 35 347 31 z"},"5":{"x_min":0,"x_max":419,"ha":419,"o":"m 408 582 q 402 574 394 564 q 386 555 378 546 q 369 537 361 530 q 354 522 348 518 l 170 518 q 167 503 162 482 q 156 461 150 439 q 145 417 139 398 q 134 379 130 368 q 148 375 173 379 q 198 383 223 383 q 259 383 286 371 q 314 358 333 337 q 351 316 361 289 q 370 262 370 233 q 370 204 364 174 q 357 145 345 117 q 333 89 314 65 q 296 41 272 23 q 248 5 219 -5 q 189 -15 155 -15 q 114 -15 74 3 q 35 21 0 60 l 22 96 q 44 79 63 68 q 81 57 96 51 q 112 44 125 42 q 139 40 152 40 q 186 40 210 55 q 235 70 252 95 q 268 120 276 151 q 284 182 284 214 q 284 238 278 258 q 271 278 258 293 q 245 308 227 316 q 208 324 185 324 q 156 324 130 313 q 104 303 77 283 l 59 299 q 64 317 71 340 q 78 364 85 390 q 92 417 100 444 q 107 472 114 498 q 121 524 126 548 q 132 571 135 588 l 342 588 q 354 588 365 589 q 375 590 381 592 q 390 594 396 597 z"}}}
